# xmcd
#
# Track frame offsets:
#	150
#	13075
#	26127
#	40195
#	55351
#	69905
#	79965
#	93132
#	107049
#	121154
#	134191
#	147060
#	161366
#	173222
#	185974
#	198766
#	210337
#	221476
#	235280
#	246825
#	259645
#	269508
#
# Disc length: 3742 seconds
#
# Revision: 0
# Processed by: cddbd v1.5.1PL2 Copyright (c) Steve Scherf et al.
# Submitted via: dBpowerAMP V4.0
#
DISCID=3e0e9c16
DTITLE=Jay McShann - Kansas City Blues  1944-1049
DYEAR=2006
DGENRE=Blues
TTITLE0=Come On Over To My House
TTITLE1=Trouble In Mind
TTITLE2=Confessing The Blues
TTITLE3=Walking Blues
TTITLE4=Merry Go Round Blues
TTITLE5=Bad Tale Boogie
TTITLE6=Hootie Boogie
TTITLE7=Garfield Avenue Blues
TTITLE8=Shipyard Woman Blues
TTITLE9=Crown Prince Boogie
TTITLE10=Ermestina
TTITLE11=Roll On Katy
TTITLE12=I Want A Little Girl
TTITLE13=Have You Ever Loved A Woman
TTITLE14=Jimtown Boogie
TTITLE15=Bar Fly Blues
TTITLE16=Hot Biscuits
TTITLE17=Slow Drag Blues
TTITLE18=Buttermilk
TTITLE19=Twelve O'clock Whistle
TTITLE20=Cover Up
TTITLE21=Scotty Can Blow (Kicks)
EXTD=
EXTT0=
EXTT1=
EXTT2=
EXTT3=
EXTT4=
EXTT5=
EXTT6=
EXTT7=
EXTT8=
EXTT9=
EXTT10=
EXTT11=
EXTT12=
EXTT13=
EXTT14=
EXTT15=
EXTT16=
EXTT17=
EXTT18=
EXTT19=
EXTT20=
EXTT21=
PLAYORDER=
